<?xml version="1.0" ?><svg height="24" id="svg958" version="1.1" viewBox="0 0 6.3499999 6.3500002" width="24" xmlns="http://www.w3.org/2000/svg" xmlns:cc="http://creativecommons.org/ns#" xmlns:dc="http://purl.org/dc/elements/1.1/" xmlns:inkscape="http://www.inkscape.org/namespaces/inkscape" xmlns:rdf="http://www.w3.org/1999/02/22-rdf-syntax-ns#" xmlns:sodipodi="http://sodipodi.sourceforge.net/DTD/sodipodi-0.dtd" xmlns:svg="http://www.w3.org/2000/svg"><defs id="defs952"/><g id="layer1"><path d="m 1.5883759,0.52916484 c -0.1461482,-5.583e-4 -0.265058,0.1174148 -0.2656425,0.2635498 4.9e-5,0.1478363 -3.81e-5,0.1479949 0,0.26613356 H 0.79299876 A 0.26463551,0.26460995 0 0 0 0.5294235,1.322398 v 1.0583334 a 0.26463551,0.26460995 0 0 0 0.18191867,0.252181 L 1.3227334,2.8360008 c -4.48e-5,0.1149625 6.26e-5,0.1888529 0,0.3400308 5.16e-4,0.5281851 0.635409,0.6114997 1.0584355,0.7110677 V 4.2328148 H 2.1175937 C 2.0174235,4.2331058 1.926022,4.2899007 1.8814096,4.3795757 L 1.351675,5.437909 C 1.263713,5.6138601 1.391648,5.8208254 1.5883759,5.8208315 H 4.762649 C 4.9602816,5.8223396 5.0897913,5.6146721 5.0014172,5.437909 L 4.4716826,4.3795757 C 4.4267389,4.2892287 4.3343459,4.2323158 4.2334312,4.2328148 H 3.9698559 v -0.344682 c 0.5086778,-0.078632 1.0589523,-0.1833999 1.0589523,-0.703833 -1.392e-4,-0.078382 6.69e-5,-0.2330685 0,-0.348299 L 5.6412331,2.6329124 A 0.26463551,0.26460995 0 0 0 5.8210846,2.3807314 V 1.322398 A 0.26463551,0.26460995 0 0 0 5.5575092,1.0588482 h -0.528701 c 1.98e-5,-0.059697 0,-0.23544566 0,-0.26613356 C 5.0282245,0.64637764 4.9089986,0.52832084 4.762649,0.52916484 Z M 1.8519511,1.0588482 H 4.4990737 V 3.1357239 C 4.1023432,3.374113 3.6613955,3.4400982 3.1770628,3.4400982 c -0.4847736,0 -0.9347138,-0.088392 -1.3251117,-0.3079914 z M 1.0591582,1.5880149 h 0.2635752 c 4.23e-5,0.2045982 3.15e-5,0.5170835 0,0.6909139 L 1.0591582,2.1915958 Z m 3.96965,0 h 0.2630585 v 0.6035807 l -0.2630585,0.087333 c 2.33e-5,-0.2858624 -9.21e-5,-0.4359451 0,-0.6909137 z M 2.9103867,3.9589297 c 0.2651517,0.010329 0.2656168,0.010329 0.5302514,0 V 4.2328148 H 2.9103867 Z M 2.2798734,4.7619814 h 1.791795 L 4.3352435,5.2916648 H 2.0157812 Z" id="path3257" style="color:#000000;font-style:normal;font-variant:normal;font-weight:normal;font-stretch:normal;font-size:medium;line-height:normal;font-family:sans-serif;font-variant-ligatures:normal;font-variant-position:normal;font-variant-caps:normal;font-variant-numeric:normal;font-variant-alternates:normal;font-variant-east-asian:normal;font-feature-settings:normal;font-variation-settings:normal;text-indent:0;text-align:start;text-decoration:none;text-decoration-line:none;text-decoration-style:solid;text-decoration-color:#000000;letter-spacing:normal;word-spacing:normal;text-transform:none;writing-mode:lr-tb;direction:ltr;text-orientation:mixed;dominant-baseline:auto;baseline-shift:baseline;text-anchor:start;white-space:normal;shape-padding:0;shape-margin:0;inline-size:0;clip-rule:nonzero;display:inline;overflow:visible;visibility:visible;opacity:1;isolation:auto;mix-blend-mode:normal;color-interpolation:sRGB;color-interpolation-filters:linearRGB;solid-color:#000000;solid-opacity:1;vector-effect:none;fill:#000000;fill-opacity:1;fill-rule:nonzero;stroke:none;stroke-width:0.52916667;stroke-linecap:round;stroke-linejoin:round;stroke-miterlimit:4;stroke-dasharray:none;stroke-dashoffset:0;stroke-opacity:1;color-rendering:auto;image-rendering:auto;shape-rendering:auto;text-rendering:auto;enable-background:accumulate;stop-color:#000000;stop-opacity:1"/></g></svg>